<?xml version="1.0" encoding="utf-8"?>
<!-- Generator: Adobe Illustrator 24.2.1, SVG Export Plug-In . SVG Version: 6.00 Build 0)  -->
<svg version="1.1" id="Layer_1" xmlns="http://www.w3.org/2000/svg" xmlns:xlink="http://www.w3.org/1999/xlink" x="0px" y="0px"
	 viewBox="0 0 595.28 841.89" style="enable-background:new 0 0 595.28 841.89;" xml:space="preserve">
<style type="text/css">
	.st0{fill:#0D6EFD;}
	.st1{fill:#FFFFFF;stroke:#000000;stroke-width:9.0688;stroke-miterlimit:10;}
	.st2{fill:#FFFFFF;}
</style>
<path class="st0" d="M353.33,199.29l126.87,211.82c16.16,26.97-3.32,61.25-34.76,61.19l-254.63-0.54
	c-31.44-0.07-50.77-34.43-34.5-61.33l127.76-211.29C299.83,173.08,337.67,173.16,353.33,199.29z"/>
<path class="st1" d="M330.11,217.03l126.87,211.82c16.16,26.97-3.32,61.25-34.76,61.19l-254.63-0.54
	c-31.44-0.07-50.77-34.43-34.5-61.33l127.76-211.29C276.61,190.81,314.46,190.89,330.11,217.03z"/>
<g>
	<path d="M130.8,593.63h20.76c6.58,0,11.83-1.83,15.76-5.5c3.92-3.67,5.89-9.72,5.89-18.16v-7.72c0-7.68-1.48-13.5-4.43-17.46
		c-2.95-3.96-7.43-5.95-13.42-5.95h-13.29l-3.29,14.05c-0.51,2.36-0.76,4.47-0.76,6.33c0,2.87,0.78,5.11,2.34,6.71
		c1.56,1.6,4.15,2.74,7.78,3.42l-2.02,6.71c-5.91-0.59-10.19-2.26-12.85-5c-2.66-2.74-3.99-6.56-3.99-11.45
		c0-2.36,0.25-4.85,0.76-7.47l4.81-21.01h22.15c8.18,0,14.53,2.7,19.05,8.1c4.51,5.4,6.81,13.16,6.9,23.29v7.09
		c0,10.97-2.74,19-8.23,24.11c-5.49,5.11-12.66,7.66-21.51,7.66h-22.4V593.63z"/>
	<path d="M245.46,601.34l-28.73-43.16l-13.54,43.16h-9.37l13.79-43.54l3.42-8.35l-11.64-18.35h10l11.26,17.72l11.9,17.59l2.91-10.5
		l7.59-24.8h9.49l-14.3,43.92l17.84,26.32H245.46z"/>
	<path d="M314.93,531.11v8.23l-24.42,62.01h-9.74l24.43-62.52h-39.23V510.6h8.99v20.5H314.93z"/>
	<path d="M330.63,545.91l-1.64-14.81h9.62l1.77,14.81v18.86l-0.13,7.97l-9.62,2.02V545.91z"/>
	<path d="M356.7,567.17l1.39-8.48h8.35v42.65h-9.74V567.17z M400.11,554.27c0-5.48-1.18-9.43-3.54-11.83
		c-2.36-2.4-5.74-3.61-10.12-3.61h-29.61v-7.72h31.77c14.17,0,21.26,7.85,21.26,23.54v46.7h-9.75V554.27z"/>
	<path d="M446.04,593.63c4.47-0.51,8.23-1.56,11.26-3.16c3.04-1.6,5.57-4.39,7.59-8.35c2.02-3.96,3.29-9.53,3.8-16.71l2.15-26.58
		h-45.56v-7.72h55.94l-0.38,6.96l-2.03,25.44c-0.59,12.23-3.69,21.51-9.3,27.84c-5.61,6.33-13.1,9.66-22.46,10L446.04,593.63z
		 M425.54,565.4l1.39-8.61h8.35v69.86h-9.75V565.4z"/>
</g>
<g>
	<path d="M132.93,630.1l-0.64-5.34h1.46l0.64,5.34v6.62l-0.05,2.88l-1.41,0.46V630.1z"/>
	<path d="M156.61,624.77v1.37l-9.22,23.5h-1.46l9.22-23.5h-14.83v-9.22h1.46v7.85H156.61z"/>
	<path d="M178.74,645c-3.16,3.15-7.85,4.84-14.06,5.09l-3.06-25.33h1.46l1.73,14.1c1.7-0.97,3.04-1.94,4.02-2.9
		c0.97-0.96,1.71-2.11,2.21-3.45s0.78-3.04,0.84-5.11l0.05-2.51h1.46l-0.05,2.51c-0.06,2.31-0.4,4.24-1,5.77
		c-0.61,1.54-1.49,2.85-2.65,3.95c-1.16,1.1-2.72,2.16-4.7,3.19l1,8.26c5.14-0.33,9.1-1.92,11.86-4.77
		c2.77-2.84,4.14-7.25,4.11-13.21l-0.05-5.84h1.46l0.05,5.84C183.47,637.06,181.91,641.86,178.74,645z"/>
	<path d="M214.52,633.21c0-2.53-0.54-4.34-1.62-5.43c-1.08-1.1-2.59-1.64-4.54-1.64h-9.86v-1.37h9.95c2.4,0,4.26,0.66,5.57,1.98
		c1.31,1.32,1.96,3.48,1.96,6.46v16.43h-1.46V633.21z M198.59,637.41l0.23-3.06h1.23v15.29h-1.46V637.41z"/>
	<path d="M238.2,624.77v1.37l-9.22,23.5h-1.46l9.22-23.5h-14.83v-9.22h1.46v7.85H238.2z"/>
	<path d="M244.77,630.1l-0.64-5.34h1.46l0.64,5.34v6.62l-0.05,2.88l-1.41,0.46V630.1z"/>
	<path d="M268.87,633.21c0-2.53-0.54-4.34-1.62-5.43c-1.08-1.1-2.59-1.64-4.54-1.64h-9.86v-1.37h9.95c2.4,0,4.26,0.66,5.57,1.98
		c1.31,1.32,1.96,3.48,1.96,6.46v16.43h-1.46V633.21z M252.94,637.41l0.23-3.06h1.23v15.29h-1.46V637.41z"/>
	<path d="M283.29,648.27c1.76-0.24,3.26-0.66,4.47-1.25c1.22-0.59,2.27-1.7,3.15-3.31c0.88-1.61,1.43-3.91,1.64-6.89l0.91-10.68
		h-16.75v-1.37h18.3l-0.09,1.37l-0.91,10.68c-0.21,4.38-1.32,7.56-3.31,9.54c-1.99,1.98-4.39,3.07-7.19,3.29L283.29,648.27z
		 M277.08,636.49l0.23-3.06h1.23v25.33h-1.46V636.49z"/>
	<path d="M316.33,624.77v1.37l-9.22,23.5h-1.46l9.22-23.5h-14.83v-9.22h1.46v7.85H316.33z"/>
	<path d="M329.1,648.95c1.86-0.12,3.19-0.69,3.99-1.71c0.81-1.02,1.19-2.46,1.16-4.31v-18.16h9.45c2.4,0,4.26,0.66,5.57,1.98
		c1.31,1.32,1.96,3.48,1.96,6.46v16.43h-1.46v-16.43c0-2.53-0.54-4.34-1.62-5.43c-1.08-1.1-2.59-1.64-4.54-1.64h-7.89v16.75
		c0,2.22-0.51,3.94-1.53,5.16c-1.02,1.22-2.64,1.93-4.86,2.15L329.1,648.95z"/>
	<path d="M358.72,630.1l-0.64-5.34h1.46l0.64,5.34v6.62l-0.05,2.88l-1.41,0.46V630.1z"/>
	<path d="M385.28,648.27v1.37h-4.84h-13.87v-1.37h13.87v-15.06c0-2.53-0.54-4.34-1.62-5.43c-1.08-1.1-2.59-1.64-4.54-1.64h-7.71
		v-1.37h7.8c2.4,0,4.26,0.66,5.57,1.98c1.31,1.32,1.96,3.48,1.96,6.46v15.06H385.28z"/>
	<path d="M406.32,633.21c0-2.53-0.54-4.34-1.62-5.43c-1.08-1.1-2.59-1.64-4.54-1.64h-9.86v-1.37h9.95c2.4,0,4.26,0.66,5.57,1.98
		c1.31,1.32,1.96,3.48,1.96,6.46v16.43h-1.46V633.21z M390.39,637.41l0.23-3.06h1.23v15.29h-1.46V637.41z"/>
</g>
<path class="st2" d="M197.4,506.93l190.57-1.21c2.83-0.02,5.1-2.32,5.09-5.15l-0.18-28.12c-0.02-2.83-2.32-5.1-5.15-5.09
	l-190.57,1.21c-2.83,0.02-5.1,2.32-5.09,5.15l0.18,28.12C192.26,504.67,194.57,506.95,197.4,506.93z"/>
<g>
	<g>
		<path d="M206.45,488.25l0.4-1.85l2.54-0.02l0.06,9.35l-2.95,0.02L206.45,488.25z M215.78,485.22c-0.01-0.97-0.22-1.68-0.65-2.11
			c-0.43-0.43-1.04-0.64-1.85-0.64l-6.78,0.04l-0.01-2.26l7.53-0.05c1.47-0.01,2.62,0.4,3.46,1.22c0.83,0.82,1.25,2.13,1.27,3.91
			l0.07,10.34l-2.95,0.02L215.78,485.22z"/>
		<path d="M234.54,493.77c-1.13,1.43-2.74,2.16-4.84,2.17c-0.77,0-1.56-0.08-2.37-0.26l0.29-2.26c0.7,0.14,1.3,0.21,1.79,0.21
			c1.4-0.01,2.41-0.5,3.05-1.48s0.95-2.41,0.94-4.28c-0.01-2-0.33-3.44-0.95-4.31c-0.62-0.87-1.5-1.3-2.64-1.29
			c-0.88,0.01-1.6,0.26-2.16,0.77c-0.56,0.51-0.93,1.19-1.1,2.03l-1.78,10.57l-2.95,0.02l1.92-10.69l-2.18-4.81l3.06-0.02l1.26,3.25
			c0.38-1.16,0.96-2.03,1.75-2.62c0.79-0.58,1.69-0.88,2.7-0.89c1.84-0.01,3.28,0.62,4.31,1.89c1.04,1.27,1.57,3.27,1.58,5.99
			C236.23,490.33,235.67,492.34,234.54,493.77z"/>
		<path d="M249.7,479.98l0.02,2.46l-5.07,13.08l-2.95,0.02l5.07-13.27l-8.3,0.05l-0.04-6.54l2.68-0.02l0.03,4.27L249.7,479.98z"/>
		<path d="M264.29,492.84c-2.19,1.93-5.57,2.9-10.13,2.89l-2.11-15.76l2.81-0.02l0.93,7.33c1.01-0.5,1.69-1.16,2.06-1.97
			c0.36-0.81,0.56-2.03,0.58-3.64l-0.01-1.71l2.81-0.02l-0.02,1.66c-0.02,2.02-0.42,3.65-1.18,4.88c-0.76,1.23-2.08,2.22-3.95,2.99
			l0.47,3.75c2.77-0.2,4.82-1.04,6.12-2.52c1.3-1.48,1.94-3.62,1.9-6.41l-0.08-4.39l2.95-0.02l0.05,4.25
			C267.55,487.99,266.48,490.9,264.29,492.84z"/>
		<path d="M274.94,493.69c1.07-0.12,1.78-0.41,2.15-0.87c0.36-0.46,0.54-1.21,0.54-2.24l-0.07-10.78l7.45-0.05
			c1.47-0.01,2.62,0.4,3.46,1.22c0.83,0.82,1.25,2.13,1.27,3.91l0.07,10.34l-2.95,0.02l-0.07-10.48c-0.01-0.97-0.22-1.68-0.65-2.11
			c-0.43-0.43-1.04-0.64-1.85-0.64l-3.75,0.02l0.05,8.19c0.01,1.82-0.4,3.15-1.24,3.98c-0.84,0.83-2.21,1.35-4.1,1.54L274.94,493.69
			z"/>
		<path d="M305.61,493.32c-1.13,1.43-2.74,2.16-4.84,2.17c-0.77,0-1.56-0.08-2.37-0.26l0.29-2.26c0.7,0.14,1.3,0.21,1.79,0.21
			c1.4-0.01,2.41-0.5,3.05-1.48c0.64-0.98,0.95-2.41,0.94-4.28c-0.01-2-0.33-3.44-0.95-4.31c-0.62-0.87-1.5-1.3-2.64-1.29
			c-0.88,0-1.6,0.26-2.16,0.77c-0.56,0.51-0.93,1.19-1.1,2.03l-1.78,10.57l-2.95,0.02l1.92-10.69l-2.18-4.81l3.06-0.02l1.26,3.25
			c0.38-1.16,0.96-2.03,1.75-2.62s1.69-0.88,2.7-0.89c1.84-0.01,3.28,0.62,4.31,1.89c1.04,1.27,1.57,3.27,1.58,5.99
			C307.29,489.88,306.74,491.88,305.61,493.32z"/>
		<path d="M317.05,484.57c-0.01-0.97-0.22-1.68-0.65-2.11c-0.43-0.43-1.04-0.64-1.85-0.64l-5.1,0.03l-0.01-2.26l5.85-0.04
			c1.47-0.01,2.62,0.4,3.46,1.22c0.83,0.82,1.25,2.13,1.27,3.91l0.07,10.34l-2.95,0.02L317.05,484.57z"/>
		<path d="M327.86,493.35c1.07-0.12,1.78-0.41,2.15-0.87c0.36-0.46,0.54-1.21,0.54-2.24l-0.07-10.78l7.45-0.05
			c1.47-0.01,2.62,0.4,3.46,1.22c0.83,0.82,1.25,2.13,1.27,3.91l0.07,10.34l-2.95,0.02l-0.07-10.48c-0.01-0.97-0.22-1.68-0.65-2.11
			c-0.43-0.43-1.04-0.64-1.85-0.64l-3.75,0.02l0.05,8.19c0.01,1.82-0.4,3.15-1.24,3.98c-0.84,0.83-2.21,1.35-4.1,1.54L327.86,493.35
			z"/>
		<path d="M346.22,482.59l-0.35-3.23l2.92-0.02l0.38,3.23l0.08,12.27l-2.95,0.02L346.22,482.59z"/>
		<path d="M365.15,492.94c-1.13,1.43-2.74,2.16-4.84,2.17c-0.77,0-1.57-0.08-2.38-0.26l0.29-2.26c0.7,0.14,1.3,0.21,1.79,0.21
			c1.4-0.01,2.41-0.5,3.05-1.48c0.64-0.98,0.95-2.41,0.94-4.28c-0.01-2-0.33-3.44-0.95-4.31c-0.62-0.87-1.5-1.3-2.64-1.29
			c-0.88,0-1.6,0.26-2.16,0.77c-0.56,0.51-0.93,1.19-1.1,2.03l-1.78,10.57l-2.95,0.02l1.92-10.69l-2.18-4.81l3.06-0.02l1.26,3.25
			c0.38-1.16,0.96-2.03,1.75-2.62c0.79-0.58,1.69-0.88,2.7-0.89c1.84-0.01,3.28,0.62,4.31,1.89c1.04,1.27,1.57,3.27,1.58,5.99
			C366.84,489.5,366.28,491.5,365.15,492.94z"/>
		<path d="M376.59,484.19c-0.01-0.97-0.22-1.68-0.65-2.11c-0.42-0.43-1.04-0.64-1.85-0.64l-5.1,0.03l-0.01-2.26l5.85-0.04
			c1.47-0.01,2.62,0.4,3.46,1.22c0.83,0.82,1.25,2.13,1.27,3.91l0.07,10.34l-2.95,0.02L376.59,484.19z"/>
	</g>
</g>
</svg>
