<?xml version="1.0" encoding="utf-8"?>
<!-- Generator: Adobe Illustrator 24.2.1, SVG Export Plug-In . SVG Version: 6.00 Build 0)  -->
<svg version="1.1" id="Layer_1" xmlns="http://www.w3.org/2000/svg" xmlns:xlink="http://www.w3.org/1999/xlink" x="0px" y="0px"
	 viewBox="0 0 914.72 310.24" style="enable-background:new 0 0 914.72 310.24;" xml:space="preserve">
<style type="text/css">
	.st0{fill:#0D6EFD;stroke:#0D6EFD;stroke-width:10;stroke-miterlimit:10;}
	.st1{fill:#FFFFFF;stroke:#000000;stroke-width:15;stroke-miterlimit:10;}
	.st2{fill:#0D6EFD;}
	.st3{fill:#FFFFFF;stroke:#000000;stroke-width:5.9528;stroke-miterlimit:10;}
</style>
<path class="st0" d="M788.54,85.85l83.28,139.04c10.6,17.71-2.18,40.21-22.82,40.16l-167.14-0.35
	c-20.64-0.04-33.33-22.6-22.65-40.26l83.86-138.69C753.43,68.64,778.27,68.69,788.54,85.85z"/>
<path class="st1" d="M773.31,97.49l83.28,139.04c10.6,17.71-2.18,40.21-22.82,40.16l-167.14-0.35
	c-20.64-0.04-33.33-22.6-22.65-40.26L727.84,97.4C738.19,80.28,763.03,80.34,773.31,97.49z"/>
<g>
	<path d="M49.69,172.51h40.42c7.73,0,13.77-2.5,18.11-7.5c4.33-5,6.5-11.91,6.5-20.71v-14.81c0-8.4-1.9-15.17-5.7-20.31
		c-3.8-5.13-9.37-7.7-16.71-7.7H77.91l-3.6,17.01c-0.4,1.73-0.6,3.4-0.6,5c0,3.33,1,5.9,3,7.7c2,1.8,5.27,3.17,9.8,4.1l-4.6,18.01
		c-11.87-0.27-20.48-2.93-25.81-8c-5.34-5.07-8-11.94-8-20.61c0-3.2,0.27-6.13,0.8-8.8l8-36.01h42.22c13.87,0,24.74,4.6,32.61,13.81
		c7.87,9.2,11.8,21.61,11.8,37.21v12c0,16.01-4.2,28.54-12.6,37.61c-8.4,9.07-19.74,13.6-34.01,13.6H49.69V172.51z"/>
	<path d="M237.56,194.12l-37.61-58.22l-17.81,58.22h-27.41l22.21-68.63l6.2-15.41l-18.61-30.21h29.01l16.01,26.01l14.41,21.81
		l5.4-18.21l8-29.61h27.41l-24.01,72.83l27.61,41.42H237.56z"/>
	<path d="M367.21,79.87v23.81l-36.01,90.43h-28.81l35.81-92.63h-58.02V50.66h26.01v29.21H367.21z"/>
	<path d="M385.82,103.28l-2.4-23.41h28.81l2.4,23.41v31.21l-0.2,12.6l-28.61,5V103.28z"/>
	<path d="M435.03,139.5l4-13.41h25.01v68.03h-29.01V139.5z M501.86,116.09c0-9.74-4.47-14.61-13.4-14.61h-52.22V79.87h60.02
		c10.67,0,19.11,3.04,25.31,9.1c6.2,6.07,9.3,15.58,9.3,28.51v76.63h-29.01V116.09z"/>
	<path d="M548.67,138.29l4-13.8h25.01v109.64h-29.01V138.29z M589.09,172.71c9.07-0.8,15.81-3.87,20.21-9.2
		c4.4-5.33,7.07-14.41,8-27.21l2.6-34.81h-69.63V79.87h100.64l-1,18.61l-2.2,30.21c-2.14,43.35-20.94,65.22-56.42,65.63
		L589.09,172.71z"/>
</g>
<g>
	<path d="M49.76,238.4l-0.98-8.86h5.76l1.06,8.86v11.29l-0.08,4.77l-5.76,1.21V238.4z"/>
	<path d="M93.38,229.54v4.92l-14.62,37.11h-5.83l14.62-37.41H64.07v-16.89h5.38v12.27H93.38z"/>
	<path d="M131.97,264.3c-5.73,5.25-14.43,7.93-26.09,8.03l-5.3-42.79h5.6l2.58,21.43c2.27-1.21,4.04-2.51,5.3-3.9
		c1.26-1.39,2.18-3.09,2.76-5.11c0.58-2.02,0.92-4.62,1.02-7.8l0.08-4.47h5.6l-0.08,4.39c-0.1,5.56-1.21,9.96-3.33,13.22
		s-5.73,6-10.83,8.22l1.44,11.66c8.03-0.5,14.04-2.92,18.03-7.23c3.99-4.32,5.96-10.77,5.91-19.35l-0.08-11.06h5.83l0.08,10.83
		C140.54,251.07,137.7,259.05,131.97,264.3z"/>
	<path d="M164.27,251.12l0.83-5.07h5v25.52h-5.83V251.12z M190.25,243.4c0-3.28-0.71-5.64-2.12-7.08c-1.41-1.44-3.43-2.16-6.06-2.16
		h-17.72v-4.62h19.01c8.48,0,12.72,4.7,12.72,14.09v27.95h-5.83V243.4z"/>
	<path d="M233.64,229.54v4.92l-14.62,37.11h-5.83l14.62-37.41h-23.48v-16.89h5.38v12.27H233.64z"/>
	<path d="M243.03,238.4l-0.98-8.86h5.76l1.06,8.86v11.29l-0.08,4.77l-5.76,1.21V238.4z"/>
	<path d="M258.64,251.12l0.83-5.07h5v25.52h-5.83V251.12z M284.61,243.4c0-3.28-0.71-5.64-2.12-7.08c-1.41-1.44-3.43-2.16-6.06-2.16
		h-17.72v-4.62h19.01c8.48,0,12.72,4.7,12.72,14.09v27.95h-5.83V243.4z"/>
	<path d="M312.11,266.95c2.68-0.3,4.92-0.93,6.74-1.89c1.82-0.96,3.33-2.62,4.54-5c1.21-2.37,1.97-5.71,2.27-10l1.29-15.9h-27.27
		v-4.62h33.48l-0.23,4.17l-1.21,15.22c-0.35,7.32-2.21,12.88-5.57,16.66c-3.36,3.79-7.84,5.78-13.44,5.98L312.11,266.95z
		 M299.84,250.06l0.83-5.15h5v41.81h-5.83V250.06z"/>
	<path d="M369.59,229.54v4.92l-14.62,37.11h-5.83l14.62-37.41h-23.48v-16.89h5.38v12.27H369.59z"/>
	<path d="M389.89,268.47c2.98-0.25,5.04-1.1,6.17-2.54c1.14-1.44,1.7-3.62,1.7-6.55v-29.84h18.56c8.48,0,12.72,4.7,12.72,14.09
		v27.95h-5.83V243.4c0-3.28-0.71-5.64-2.12-7.08c-1.41-1.44-3.43-2.16-6.06-2.16h-11.44v24.61c0,4.44-1.04,7.76-3.1,9.96
		c-2.07,2.2-5.4,3.5-10,3.9L389.89,268.47z"/>
	<path d="M439.95,238.4l-0.98-8.86h5.76l1.06,8.86v11.29l-0.08,4.77l-5.76,1.21V238.4z"/>
	<path d="M487.89,266.95v4.62h-11.21h-21.81v-4.62h21.81V243.4c0-3.28-0.71-5.64-2.12-7.08c-1.41-1.44-3.43-2.16-6.06-2.16h-13.63
		v-4.62h14.92c8.48,0,12.72,4.7,12.72,14.09v23.33H487.89z"/>
	<path d="M495.39,251.12l0.83-5.07h5v25.52h-5.83V251.12z M521.36,243.4c0-3.28-0.71-5.64-2.12-7.08c-1.41-1.44-3.43-2.16-6.06-2.16
		h-17.72v-4.62h19.01c8.48,0,12.72,4.7,12.72,14.09v27.95h-5.83V243.4z"/>
</g>
<g>
	<path class="st2" d="M788.54-271.02l83.28,139.04c10.6,17.71-2.18,40.21-22.82,40.16l-167.14-0.35
		c-20.64-0.04-33.33-22.6-22.65-40.26l83.86-138.69C753.43-288.23,778.27-288.18,788.54-271.02z"/>
	<path class="st3" d="M773.31-259.38l83.28,139.04c10.6,17.71-2.18,40.21-22.82,40.16l-167.14-0.35
		c-20.64-0.04-33.33-22.6-22.65-40.26l83.86-138.69C738.19-276.59,763.03-276.53,773.31-259.38z"/>
</g>
<g>
	<path d="M49.69-184.36h40.42c7.73,0,13.77-2.5,18.11-7.5c4.33-5,6.5-11.91,6.5-20.71v-14.81c0-8.4-1.9-15.17-5.7-20.31
		c-3.8-5.13-9.37-7.7-16.71-7.7H77.91l-3.6,17.01c-0.4,1.73-0.6,3.4-0.6,5c0,3.34,1,5.9,3,7.7c2,1.8,5.27,3.17,9.8,4.1l-4.6,18.01
		c-11.87-0.27-20.48-2.93-25.81-8c-5.34-5.07-8-11.94-8-20.61c0-3.2,0.27-6.13,0.8-8.8l8-36.01h42.22c13.87,0,24.74,4.6,32.61,13.81
		c7.87,9.2,11.8,21.61,11.8,37.21v12c0,16.01-4.2,28.55-12.6,37.61c-8.4,9.07-19.74,13.6-34.01,13.6H49.69V-184.36z"/>
	<path d="M237.56-162.75l-37.61-58.22l-17.81,58.22h-27.41l22.21-68.63l6.2-15.41L164.54-277h29.01l16.01,26.01l14.41,21.81
		l5.4-18.21l8-29.61h27.41l-24.01,72.83l27.61,41.42H237.56z"/>
	<path d="M367.21-277v23.81l-36.01,90.43h-28.81l35.81-92.64h-58.02v-50.82h26.01V-277H367.21z"/>
	<path d="M385.82-253.59l-2.4-23.41h28.81l2.4,23.41v31.21l-0.2,12.6l-28.61,5V-253.59z"/>
	<path d="M435.03-217.37l4-13.41h25.01v68.03h-29.01V-217.37z M501.86-240.78c0-9.74-4.47-14.61-13.4-14.61h-52.22V-277h60.02
		c10.67,0,19.11,3.04,25.31,9.1c6.2,6.07,9.3,15.57,9.3,28.51v76.63h-29.01V-240.78z"/>
	<path d="M548.67-218.57l4-13.81h25.01v109.64h-29.01V-218.57z M589.09-184.16c9.07-0.8,15.81-3.87,20.21-9.2
		c4.4-5.33,7.07-14.41,8-27.21l2.6-34.81h-69.63V-277h100.64l-1,18.61l-2.2,30.21c-2.14,43.35-20.94,65.22-56.42,65.63
		L589.09-184.16z"/>
</g>
<g>
	<path d="M49.76-118.47l-0.98-8.86h5.76l1.06,8.86v11.29l-0.08,4.77l-5.76,1.21V-118.47z"/>
	<path d="M93.38-127.33v4.92L78.76-85.3h-5.83l14.62-37.41H64.07v-16.89h5.38v12.27H93.38z"/>
	<path d="M131.97-92.57c-5.73,5.25-14.43,7.93-26.09,8.03l-5.3-42.79h5.6l2.58,21.43c2.27-1.21,4.04-2.51,5.3-3.9
		c1.26-1.39,2.18-3.09,2.76-5.11c0.58-2.02,0.92-4.62,1.02-7.8l0.08-4.47h5.6l-0.08,4.39c-0.1,5.56-1.21,9.96-3.33,13.22
		s-5.73,6-10.83,8.22l1.44,11.66c8.03-0.5,14.04-2.92,18.03-7.23c3.99-4.32,5.96-10.77,5.91-19.35l-0.08-11.06h5.83l0.08,10.83
		C140.54-105.8,137.7-97.82,131.97-92.57z"/>
	<path d="M164.27-105.75l0.83-5.07h5v25.52h-5.83V-105.75z M190.25-113.47c0-3.28-0.71-5.64-2.12-7.08
		c-1.41-1.44-3.43-2.16-6.06-2.16h-17.72v-4.62h19.01c8.48,0,12.72,4.7,12.72,14.09v27.95h-5.83V-113.47z"/>
	<path d="M233.64-127.33v4.92L219.03-85.3h-5.83l14.62-37.41h-23.48v-16.89h5.38v12.27H233.64z"/>
	<path d="M243.03-118.47l-0.98-8.86h5.76l1.06,8.86v11.29l-0.08,4.77l-5.76,1.21V-118.47z"/>
	<path d="M258.64-105.75l0.83-5.07h5v25.52h-5.83V-105.75z M284.61-113.47c0-3.28-0.71-5.64-2.12-7.08
		c-1.41-1.44-3.43-2.16-6.06-2.16h-17.72v-4.62h19.01c8.48,0,12.72,4.7,12.72,14.09v27.95h-5.83V-113.47z"/>
	<path d="M312.11-89.92c2.68-0.3,4.92-0.93,6.74-1.89c1.82-0.96,3.33-2.62,4.54-5c1.21-2.37,1.97-5.71,2.27-10l1.29-15.9h-27.27
		v-4.62h33.48l-0.23,4.17l-1.21,15.22c-0.35,7.32-2.21,12.88-5.57,16.66c-3.36,3.79-7.84,5.78-13.44,5.98L312.11-89.92z
		 M299.84-106.81l0.83-5.15h5v41.81h-5.83V-106.81z"/>
	<path d="M369.59-127.33v4.92L354.97-85.3h-5.83l14.62-37.41h-23.48v-16.89h5.38v12.27H369.59z"/>
	<path d="M389.89-88.4c2.98-0.25,5.04-1.1,6.17-2.54c1.14-1.44,1.7-3.62,1.7-6.55v-29.84h18.56c8.48,0,12.72,4.7,12.72,14.09v27.95
		h-5.83v-28.17c0-3.28-0.71-5.64-2.12-7.08c-1.41-1.44-3.43-2.16-6.06-2.16h-11.44v24.61c0,4.44-1.04,7.76-3.1,9.96
		c-2.07,2.2-5.4,3.5-10,3.9L389.89-88.4z"/>
	<path d="M439.95-118.47l-0.98-8.86h5.76l1.06,8.86v11.29l-0.08,4.77l-5.76,1.21V-118.47z"/>
	<path d="M487.89-89.92v4.62h-11.21h-21.81v-4.62h21.81v-23.55c0-3.28-0.71-5.64-2.12-7.08c-1.41-1.44-3.43-2.16-6.06-2.16h-13.63
		v-4.62h14.92c8.48,0,12.72,4.7,12.72,14.09v23.33H487.89z"/>
	<path d="M495.39-105.75l0.83-5.07h5v25.52h-5.83V-105.75z M521.36-113.47c0-3.28-0.71-5.64-2.12-7.08
		c-1.41-1.44-3.43-2.16-6.06-2.16h-17.72v-4.62h19.01c8.48,0,12.72,4.7,12.72,14.09v27.95h-5.83V-113.47z"/>
</g>
</svg>
