<?xml version="1.0" encoding="utf-8"?>
<!-- Generator: Adobe Illustrator 24.2.1, SVG Export Plug-In . SVG Version: 6.00 Build 0)  -->
<svg version="1.1" id="Layer_1" xmlns="http://www.w3.org/2000/svg" xmlns:xlink="http://www.w3.org/1999/xlink" x="0px" y="0px"
	 viewBox="0 0 1291.06 595.28" style="enable-background:new 0 0 1291.06 595.28;" xml:space="preserve">
<style type="text/css">
	.st0{fill:#0D6EFD;}
	.st1{fill:#FFFFFF;stroke:#000000;stroke-width:9.0688;stroke-miterlimit:10;}
	.st2{fill:#FFFFFF;}
</style>
<g>
	<g>
		<g>
			<path d="M126.84,328.72h43.08c13.66,0,24.56-3.81,32.71-11.43c8.14-7.62,12.22-20.18,12.22-37.7v-16.02
				c0-15.94-3.07-28.02-9.19-36.25c-6.13-8.23-15.41-12.35-27.85-12.35h-27.58l-6.83,29.16c-1.05,4.91-1.58,9.29-1.58,13.14
				c0,5.96,1.62,10.6,4.86,13.92c3.24,3.33,8.62,5.69,16.16,7.09l-4.2,13.92c-12.26-1.22-21.15-4.68-26.67-10.38
				c-5.52-5.69-8.28-13.62-8.28-23.78c0-4.9,0.53-10.07,1.58-15.5l9.98-43.61h45.97c16.99,0,30.17,5.61,39.54,16.81
				c9.37,11.21,14.14,27.32,14.32,48.34v14.71c0,22.77-5.69,39.45-17.08,50.05c-11.39,10.6-26.27,15.89-44.66,15.89h-46.5V328.72z"
				/>
			<path d="M364.85,344.75l-59.64-89.59l-28.11,89.59h-19.44l28.64-90.37l7.09-17.34l-24.17-38.09h20.75l23.38,36.78l24.7,36.52
				l6.04-21.81l15.76-51.49h19.7l-29.69,91.16l37.04,54.64H364.85z"/>
			<path d="M509.08,198.94v17.08l-50.7,128.73h-20.23l50.7-129.78h-81.44v-58.59h18.65v42.56H509.08z"/>
			<path d="M541.66,229.68l-3.42-30.74h19.97l3.68,30.74v39.14l-0.26,16.55l-19.97,4.2V229.68z"/>
			<path d="M595.78,273.81l2.89-17.6h17.34v88.53h-20.23V273.81z M685.89,247.02c0-11.38-2.45-19.57-7.36-24.56
				c-4.91-4.99-11.91-7.49-21.02-7.49h-61.48v-16.03h65.94c29.42,0,44.14,16.29,44.14,48.86v96.94h-20.23V247.02z"/>
			<path d="M781.25,328.72c9.28-1.05,17.08-3.24,23.38-6.57c6.3-3.32,11.56-9.1,15.76-17.34c4.2-8.23,6.83-19.79,7.88-34.68
				l4.47-55.17h-94.58v-16.03h116.12l-0.79,14.45l-4.2,52.81c-1.23,25.4-7.66,44.66-19.31,57.8
				c-11.65,13.13-27.19,20.06-46.63,20.75L781.25,328.72z M738.69,270.14l2.89-17.86h17.34v145.02h-20.23V270.14z"/>
		</g>
		<g>
			<path d="M131.26,404.45l-1.33-11.08h3.03l1.33,11.08v13.74l-0.09,5.97l-2.94,0.95V404.45z"/>
			<path d="M180.43,393.36v2.84l-19.14,48.79h-3.03l19.14-48.79h-30.79v-19.13h3.03v16.29H180.43z"/>
			<path d="M226.37,435.38c-6.57,6.54-16.29,10.06-29.18,10.56l-6.35-52.58h3.03l3.6,29.27c3.54-2.02,6.31-4.03,8.34-6.01
				c2.02-1.99,3.55-4.37,4.59-7.15c1.04-2.78,1.63-6.31,1.75-10.61l0.09-5.21h3.03l-0.09,5.21c-0.13,4.8-0.82,8.8-2.08,11.98
				c-1.26,3.19-3.1,5.92-5.49,8.19c-2.4,2.27-5.65,4.49-9.76,6.63l2.08,17.15c10.67-0.69,18.88-3.99,24.63-9.9
				c5.75-5.9,8.59-15.05,8.53-27.42L233,393.36h3.03l0.09,12.13C236.19,418.88,232.94,428.84,226.37,435.38z"/>
			<path d="M300.64,410.89c0-5.24-1.12-9-3.36-11.27c-2.24-2.27-5.38-3.41-9.43-3.41h-20.46v-2.84h20.65
				c4.99,0,8.84,1.37,11.56,4.12c2.71,2.75,4.07,7.22,4.07,13.4v34.1h-3.03V410.89z M267.58,419.61l0.47-6.35h2.56v31.73h-3.03
				V419.61z"/>
			<path d="M349.8,393.36v2.84l-19.14,48.79h-3.03l19.14-48.79h-30.79v-19.13h3.03v16.29H349.8z"/>
			<path d="M363.44,404.45l-1.33-11.08h3.03l1.33,11.08v13.74l-0.09,5.97l-2.94,0.95V404.45z"/>
			<path d="M413.46,410.89c0-5.24-1.12-9-3.36-11.27c-2.24-2.27-5.38-3.41-9.43-3.41h-20.46v-2.84h20.65
				c4.99,0,8.84,1.37,11.56,4.12c2.71,2.75,4.07,7.22,4.07,13.4v34.1h-3.03V410.89z M380.4,419.61l0.47-6.35h2.56v31.73h-3.03
				V419.61z"/>
			<path d="M443.39,442.15c3.66-0.5,6.76-1.37,9.28-2.61c2.52-1.23,4.7-3.52,6.54-6.87c1.83-3.35,2.97-8.11,3.41-14.3l1.89-22.17
				h-34.77v-2.84h37.99l-0.19,2.84l-1.89,22.17c-0.44,9.09-2.73,15.69-6.87,19.8c-4.14,4.11-9.11,6.38-14.92,6.82L443.39,442.15z
				 M430.51,417.71l0.47-6.35h2.56v52.58h-3.03V417.71z"/>
			<path d="M511.98,393.36v2.84l-19.14,48.79h-3.03l19.14-48.79h-30.79v-19.13h3.03v16.29H511.98z"/>
			<path d="M538.5,443.57c3.85-0.25,6.61-1.44,8.29-3.55c1.67-2.12,2.48-5.1,2.42-8.95v-37.7h19.61c4.99,0,8.84,1.37,11.56,4.12
				c2.71,2.75,4.07,7.22,4.07,13.4v34.1h-3.03v-34.1c0-5.24-1.12-9-3.36-11.27c-2.24-2.27-5.38-3.41-9.43-3.41h-16.39v34.77
				c0,4.61-1.06,8.18-3.17,10.7c-2.12,2.53-5.48,4.01-10.09,4.45L538.5,443.57z"/>
			<path d="M599.98,404.45l-1.33-11.08h3.03l1.33,11.08v13.74l-0.09,5.97l-2.94,0.95V404.45z"/>
			<path d="M655.11,442.15v2.84h-10.04h-28.8v-2.84h28.8v-31.26c0-5.24-1.12-9-3.36-11.27c-2.24-2.27-5.38-3.41-9.43-3.41h-16.01
				v-2.84h16.2c4.99,0,8.84,1.37,11.56,4.12c2.71,2.75,4.07,7.22,4.07,13.4v31.26H655.11z"/>
			<path d="M698.78,410.89c0-5.24-1.12-9-3.36-11.27c-2.24-2.27-5.38-3.41-9.43-3.41h-20.46v-2.84h20.65
				c4.99,0,8.84,1.37,11.56,4.12c2.71,2.75,4.07,7.22,4.07,13.4v34.1h-3.03V410.89z M665.72,419.61l0.47-6.35h2.56v31.73h-3.03
				V419.61z"/>
		</g>
	</g>
	<g>
		<path class="st0" d="M1051.51,172.77l126.87,211.82c16.16,26.97-3.32,61.25-34.76,61.19l-254.63-0.54
			c-31.44-0.07-50.77-34.43-34.5-61.33l127.76-211.29C998.01,146.55,1035.86,146.63,1051.51,172.77z"/>
		<path class="st1" d="M1028.3,190.5l126.87,211.82c16.16,26.97-3.32,61.25-34.76,61.19l-254.63-0.54
			c-31.44-0.07-50.77-34.43-34.5-61.33l127.76-211.29C974.8,164.29,1012.65,164.37,1028.3,190.5z"/>
		<path class="st2" d="M895.58,480.4l190.57-1.21c2.83-0.02,5.1-2.32,5.09-5.15l-0.18-28.12c-0.02-2.83-2.32-5.1-5.15-5.09
			l-190.57,1.21c-2.83,0.02-5.1,2.32-5.09,5.15l0.18,28.12C890.45,478.14,892.76,480.42,895.58,480.4z"/>
		<g>
			<g>
				<path d="M904.64,461.73l0.4-1.85l2.54-0.02l0.06,9.35l-2.95,0.02L904.64,461.73z M913.97,458.69c-0.01-0.97-0.22-1.68-0.65-2.11
					c-0.43-0.43-1.04-0.64-1.85-0.64l-6.78,0.04l-0.01-2.26l7.53-0.05c1.47-0.01,2.62,0.4,3.46,1.22c0.83,0.82,1.25,2.13,1.27,3.91
					l0.07,10.34l-2.95,0.02L913.97,458.69z"/>
				<path d="M932.73,467.24c-1.13,1.43-2.74,2.16-4.84,2.17c-0.77,0-1.56-0.08-2.37-0.26l0.29-2.26c0.7,0.14,1.3,0.21,1.79,0.21
					c1.4-0.01,2.41-0.5,3.05-1.48s0.95-2.41,0.94-4.28c-0.01-2-0.33-3.44-0.95-4.31c-0.62-0.87-1.5-1.3-2.64-1.29
					c-0.88,0.01-1.6,0.26-2.16,0.77s-0.93,1.19-1.1,2.03l-1.78,10.57l-2.95,0.02l1.92-10.69l-2.18-4.81l3.06-0.02l1.26,3.25
					c0.38-1.16,0.96-2.03,1.75-2.62s1.69-0.88,2.7-0.89c1.84-0.01,3.28,0.62,4.31,1.89c1.04,1.27,1.57,3.27,1.58,5.99
					C934.41,463.81,933.86,465.81,932.73,467.24z"/>
				<path d="M947.89,453.45l0.02,2.46l-5.07,13.08l-2.95,0.02l5.07-13.27l-8.3,0.05l-0.04-6.54l2.68-0.02l0.03,4.27L947.89,453.45z"
					/>
				<path d="M962.48,466.31c-2.19,1.93-5.57,2.9-10.13,2.89l-2.11-15.76l2.81-0.02l0.93,7.33c1.01-0.5,1.69-1.16,2.06-1.97
					s0.56-2.03,0.58-3.64l-0.01-1.71l2.81-0.02l-0.02,1.66c-0.02,2.02-0.42,3.65-1.18,4.88c-0.76,1.23-2.08,2.22-3.95,2.99
					l0.47,3.75c2.77-0.2,4.82-1.04,6.12-2.52c1.3-1.48,1.94-3.62,1.9-6.41l-0.08-4.39l2.95-0.02l0.05,4.25
					C965.74,461.47,964.67,464.37,962.48,466.31z"/>
				<path d="M973.13,467.16c1.07-0.12,1.78-0.41,2.15-0.87c0.36-0.46,0.54-1.21,0.54-2.24l-0.07-10.78l7.45-0.05
					c1.47-0.01,2.62,0.4,3.46,1.22c0.83,0.82,1.25,2.13,1.27,3.91l0.07,10.34l-2.95,0.02l-0.07-10.48
					c-0.01-0.97-0.22-1.68-0.65-2.11c-0.43-0.43-1.04-0.64-1.85-0.64l-3.75,0.02l0.05,8.19c0.01,1.82-0.4,3.15-1.24,3.98
					c-0.84,0.83-2.21,1.35-4.1,1.54L973.13,467.16z"/>
				<path d="M1003.79,466.79c-1.13,1.43-2.74,2.16-4.84,2.17c-0.77,0-1.56-0.08-2.37-0.26l0.29-2.26c0.7,0.14,1.3,0.21,1.79,0.21
					c1.4-0.01,2.41-0.5,3.05-1.48c0.64-0.98,0.95-2.41,0.94-4.28c-0.01-2-0.33-3.44-0.95-4.31c-0.62-0.87-1.5-1.3-2.64-1.29
					c-0.88,0-1.6,0.26-2.16,0.77c-0.56,0.51-0.93,1.19-1.1,2.03l-1.78,10.57l-2.95,0.02l1.92-10.69l-2.18-4.81l3.06-0.02l1.26,3.25
					c0.38-1.16,0.96-2.03,1.75-2.62c0.79-0.58,1.69-0.88,2.7-0.89c1.84-0.01,3.28,0.62,4.31,1.89c1.04,1.27,1.57,3.27,1.58,5.99
					C1005.48,463.36,1004.93,465.36,1003.79,466.79z"/>
				<path d="M1015.24,458.04c-0.01-0.97-0.22-1.68-0.65-2.11c-0.43-0.43-1.04-0.64-1.85-0.64l-5.1,0.03l-0.01-2.26l5.85-0.04
					c1.47-0.01,2.62,0.4,3.46,1.22c0.83,0.82,1.25,2.13,1.27,3.91l0.07,10.34l-2.95,0.02L1015.24,458.04z"/>
				<path d="M1026.05,466.83c1.07-0.12,1.78-0.41,2.15-0.87c0.36-0.46,0.54-1.21,0.54-2.24l-0.07-10.78l7.45-0.05
					c1.47-0.01,2.62,0.4,3.46,1.22c0.83,0.82,1.25,2.13,1.27,3.91l0.07,10.34l-2.95,0.02l-0.07-10.48
					c-0.01-0.97-0.22-1.68-0.65-2.11c-0.43-0.43-1.04-0.64-1.85-0.64l-3.75,0.02l0.05,8.19c0.01,1.82-0.4,3.15-1.24,3.98
					c-0.84,0.83-2.21,1.35-4.1,1.54L1026.05,466.83z"/>
				<path d="M1044.41,456.06l-0.35-3.23l2.92-0.02l0.38,3.23l0.08,12.27l-2.95,0.02L1044.41,456.06z"/>
				<path d="M1063.34,466.41c-1.13,1.43-2.74,2.16-4.84,2.17c-0.77,0-1.57-0.08-2.38-0.26l0.29-2.26c0.7,0.14,1.3,0.21,1.79,0.21
					c1.4-0.01,2.41-0.5,3.05-1.48c0.64-0.98,0.95-2.41,0.94-4.28c-0.01-2-0.33-3.44-0.95-4.31c-0.62-0.87-1.5-1.3-2.64-1.29
					c-0.88,0-1.6,0.26-2.16,0.77c-0.56,0.51-0.93,1.19-1.1,2.03l-1.78,10.57l-2.95,0.02l1.92-10.69l-2.18-4.81l3.06-0.02l1.26,3.25
					c0.38-1.16,0.96-2.03,1.75-2.62c0.79-0.58,1.69-0.88,2.7-0.89c1.84-0.01,3.28,0.62,4.31,1.89c1.04,1.27,1.57,3.27,1.58,5.99
					C1065.02,462.98,1064.47,464.98,1063.34,466.41z"/>
				<path d="M1074.78,457.66c-0.01-0.97-0.22-1.68-0.65-2.11c-0.42-0.43-1.04-0.64-1.85-0.64l-5.1,0.03l-0.01-2.26l5.85-0.04
					c1.47-0.01,2.62,0.4,3.46,1.22c0.83,0.82,1.25,2.13,1.27,3.91l0.07,10.34l-2.95,0.02L1074.78,457.66z"/>
			</g>
		</g>
	</g>
</g>
</svg>
